<?xml version="1.0" standalone="no"?>
<!DOCTYPE svg PUBLIC "-//W3C//DTD SVG 20010904//EN"
 "http://www.w3.org/TR/2001/REC-SVG-20010904/DTD/svg10.dtd">
<svg version="1.0" xmlns="http://www.w3.org/2000/svg"
 width="96.000000pt" height="96.000000pt" viewBox="0 0 96.000000 96.000000"
 preserveAspectRatio="xMidYMid meet">
<metadata>
Created by potrace 1.11, written by Peter Selinger 2001-2013
</metadata>
<g transform="translate(0.000000,96.000000) scale(0.100000,-0.100000)"
fill="#000000" stroke="none">
<path d="M170 946 c0 -3 11 -36 25 -73 18 -47 34 -74 54 -87 17 -12 27 -26 24
-36 -3 -12 18 -30 76 -65 45 -27 81 -53 81 -57 0 -12 1 -12 -101 36 -93 43
-162 74 -227 103 l-34 14 29 -53 c15 -29 39 -58 53 -65 16 -8 24 -19 22 -32
-3 -18 10 -24 87 -47 50 -15 91 -31 91 -36 0 -12 -21 -10 -185 17 -82 13 -151
22 -153 20 -3 -2 13 -22 34 -45 33 -34 51 -43 118 -60 66 -16 90 -28 153 -77
41 -32 84 -63 96 -70 14 -8 30 -35 43 -75 21 -63 21 -63 62 -66 34 -3 48 -10
77 -44 27 -33 32 -44 23 -55 -9 -11 -7 -19 10 -36 20 -20 22 -20 22 -3 0 10
10 27 22 37 23 20 38 24 38 10 0 -5 6 -11 14 -14 11 -4 12 1 7 21 -6 22 -14
27 -39 28 -31 1 -62 18 -62 35 0 4 -16 34 -35 66 -19 32 -35 61 -35 64 0 9 91
33 110 30 8 -1 20 -9 27 -18 10 -13 15 -14 28 -3 19 16 19 46 0 54 -8 3 -15
12 -15 21 0 10 -24 26 -62 42 l-61 27 57 52 58 53 -262 195 c-249 187 -270
202 -270 192z"/>
<path d="M469 865 c-3 -2 -17 -6 -33 -9 -16 -3 -31 -8 -34 -11 -3 -3 19 -29
49 -58 46 -44 60 -52 98 -55 185 -13 304 -240 216 -412 -15 -30 -45 -71 -66
-90 -34 -32 -37 -37 -25 -58 l12 -22 34 25 c158 115 201 326 104 505 -57 105
-168 175 -294 185 -31 2 -59 2 -61 0z"/>
<path d="M150 429 c0 -44 36 -129 77 -183 73 -96 220 -158 328 -137 l30 6 -21
21 c-13 13 -40 23 -72 27 -121 14 -228 117 -246 235 -6 40 -1 37 -53 49 l-43
11 0 -29z"/>
</g>
</svg>
